<?xml version="1.0" encoding="utf-8"?>
<!-- Generator: Adobe Illustrator 24.1.2, SVG Export Plug-In . SVG Version: 6.00 Build 0)  -->
<svg version="1.1" xmlns="http://www.w3.org/2000/svg" xmlns:xlink="http://www.w3.org/1999/xlink" x="0px" y="0px"
	 viewBox="0 0 795.1 120.1" style="enable-background:new 0 0 795.1 120.1;" xml:space="preserve">
<style type="text/css">
	.st0{fill:#434242;}
	.st1{fill:#434242;stroke:#434242;stroke-width:18;stroke-linecap:round;stroke-miterlimit:10;}
</style>
<g id="Layer_1">
	<g>
		<path class="st0" d="M61.4,25c3.6-3.5,3.6-9.3,0-12.9c-3.5-3.6-9.3-3.6-12.9,0L2.6,58c-3.5,3.6-3.5,9.3,0,12.9l45.9,45.9
			c3.5,3.6,9.3,3.6,12.9,0c3.6-3.5,3.6-9.3,0-12.9L31.1,73.6h131.2c5,0,9.1-4.1,9.1-9.1c0-5-4.1-9.1-9.1-9.1H31.1L61.4,25z"/>
	</g>
</g>
<g id="Layer_2">
	<line class="st1" x1="154.3" y1="64.4" x2="784.2" y2="64.4"/>
</g>
</svg>
