<?xml version="1.0" encoding="utf-8"?>
<!-- Generator: Adobe Illustrator 24.1.2, SVG Export Plug-In . SVG Version: 6.00 Build 0)  -->
<svg version="1.1" id="Layer_1" xmlns="http://www.w3.org/2000/svg" xmlns:xlink="http://www.w3.org/1999/xlink" x="0px" y="0px"
	 viewBox="0 0 40.5 32.4" style="enable-background:new 0 0 40.5 32.4;" xml:space="preserve">
<style type="text/css">
	.st0{fill:#FFFFFF;}
</style>
<g>
	<path class="st0" d="M38.6,14.2H6.7L17.5,3.4c0.8-0.8,0.8-2,0-2.8s-2-0.8-2.8,0l0,0L0.4,14.8l0,0c-0.1,0.1-0.2,0.2-0.2,0.3v0.1
		c-0.1,0.1-0.1,0.2-0.1,0.3v0.1c0,0.1-0.1,0.2-0.1,0.3c0,0.1,0,0.3,0,0.4v0.1c0,0.1,0,0.2,0,0.3l0.1,0.2V17l0.1,0.3l0.1,0.1l0.2,0.3
		l0,0l14.1,14.2c0.8,0.7,2.1,0.7,2.8-0.1c0.7-0.8,0.7-1.9,0-2.7L6.6,18.2h31.9c1.1,0,2-0.9,2-2S39.7,14.2,38.6,14.2z"/>
</g>
</svg>
