<svg xmlns="http://www.w3.org/2000/svg" viewBox="0 0 360.83 66.38"><defs><style>.cls-1{font-size:21px;fill:#fff;font-family:MyriadPro-Regular, Myriad Pro;}</style></defs><g id="Layer_2" data-name="Layer 2"><g id="Layer_2-2" data-name="Layer 2"><text class="cls-1" transform="translate(8.98 59.04) rotate(-30.39)">.</text><text class="cls-1" transform="translate(12.68 56.87) rotate(-29.65)">.</text><text class="cls-1" transform="translate(16.43 54.73) rotate(-28.97)">.</text><text class="cls-1" transform="translate(20.19 52.64) rotate(-28.14)">t</text><text class="cls-1" transform="matrix(0.89, -0.45, 0.45, 0.89, 26.24, 49.38)">a</text><text class="cls-1" transform="translate(35.19 44.84) rotate(-25.48)">k</text><text class="cls-1" transform="translate(43.98 40.64) rotate(-23.94)">e</text><text class="cls-1" transform="translate(53.54 36.43) rotate(-22.73)"> </text><text class="cls-1" transform="translate(57.56 34.71) rotate(-21.48)">a</text><text class="cls-1" transform="translate(66.91 31.07) rotate(-20.13)"> </text><text class="cls-1" transform="matrix(0.95, -0.32, 0.32, 0.95, 71.01, 29.53)">c</text><text class="cls-1" transform="translate(79.81 26.57) rotate(-17.18)">l</text><text class="cls-1" transform="translate(84.43 25.08) rotate(-15.18)">o</text><text class="cls-1" transform="translate(95.4 22.13) rotate(-12.46)">s</text><text class="cls-1" transform="translate(103.34 20.34) rotate(-9.44)">e</text><text class="cls-1" transform="translate(113.51 18.69) rotate(-6.21)">r</text><text class="cls-1" transform="translate(120.18 17.98) rotate(-3.82)"> </text><text class="cls-1" transform="matrix(1, -0.03, 0.03, 1, 124.48, 17.68)">l</text><text class="cls-1" transform="translate(129.19 17.41) rotate(2.7)">o</text><text class="cls-1" transform="translate(140.26 17.88) rotate(9.75)">o</text><text class="cls-1" transform="translate(151.18 19.78) rotate(17.08)">k</text><text class="cls-1" transform="translate(160.28 22.69) rotate(22.03)"> </text><text class="cls-1" transform="translate(164.25 24.29) rotate(24.92)">.</text><text class="cls-1" transform="matrix(0.89, 0.46, -0.46, 0.89, 168.03, 26.04)">.</text><text class="cls-1" transform="translate(171.76 27.99) rotate(29.92)">.</text><text class="cls-1" transform="translate(175.4 30.08) rotate(31.93)"> </text><text class="cls-1" transform="translate(179.09 32.36) rotate(33.89)">t</text><text class="cls-1" transform="translate(184.78 36.19) rotate(35.23)">a</text><text class="cls-1" transform="matrix(0.83, 0.56, -0.56, 0.83, 193.1, 42.12)">k</text><text class="cls-1" transform="matrix(0.87, 0.49, -0.49, 0.87, 201.84, 48.07)">e</text><text class="cls-1" transform="matrix(0.91, 0.41, -0.41, 0.91, 211.82, 53.54)"> </text><text class="cls-1" transform="translate(216.77 55.89) rotate(17.95)">a</text><text class="cls-1" transform="translate(227.46 59.12) rotate(11.43)"> </text><text class="cls-1" transform="matrix(1, 0.1, -0.1, 1, 232.72, 60.25)">c</text><text class="cls-1" transform="translate(242.99 61.09) rotate(0.95)">l</text><text class="cls-1" transform="translate(248.85 61.28) rotate(-5.48)">o</text><text class="cls-1" transform="matrix(0.97, -0.22, 0.22, 0.97, 261.48, 59.89)">s</text><text class="cls-1" transform="matrix(0.94, -0.33, 0.33, 0.94, 270.64, 57.79)">e</text><text class="cls-1" transform="translate(281.29 53.86) rotate(-24.84)">r</text><text class="cls-1" transform="matrix(0.89, -0.46, 0.46, 0.89, 287.92, 50.74)"> </text><text class="cls-1" transform="matrix(0.87, -0.49, 0.49, 0.87, 292.13, 48.53)">l</text><text class="cls-1" transform="matrix(0.85, -0.53, 0.53, 0.85, 296.8, 45.94)">o</text><text class="cls-1" transform="translate(306.58 39.78) rotate(-33.13)">o</text><text class="cls-1" transform="translate(316.14 33.5) rotate(-31.83)">k</text><text class="cls-1" transform="translate(324.4 28.42) rotate(-29.51)"> </text><text class="cls-1" transform="matrix(0.89, -0.46, 0.46, 0.89, 328.17, 26.28)">.</text><text class="cls-1" transform="translate(331.87 24.35) rotate(-24.92)">.</text><text class="cls-1" transform="translate(335.65 22.59) rotate(-21.89)">.</text></g></g></svg>